<mxfile host="app.diagrams.net" modified="2023-06-24T13:23:43.737Z" agent="Mozilla/5.0 (Windows NT 10.0; Win64; x64) AppleWebKit/537.36 (KHTML, like Gecko) Chrome/115.0.0.0 Safari/537.36 Edg/115.0.0.0" version="21.5.0" etag="AFJ1sWpWPvGn0px75uv8" type="github">
  <diagram name="Sayfa -1" id="qxnk2PWSN8UQ7VGx06XB">
    <mxGraphModel>
      <root>
        <mxCell id="0" />
        <mxCell id="1" parent="0" />
      </root>
    </mxGraphModel>
  </diagram>
</mxfile>
